<svg id="Ebene_1" data-name="Ebene 1" xmlns="http://www.w3.org/2000/svg" viewBox="0 0 42.8 18"><defs><style>.cls-1{fill:#cf9775;}.cls-2{fill:#2d140d;}</style></defs><path class="cls-1" d="M15,4.24V15H4.18V5.59A1.36,1.36,0,0,1,5.53,4.24Z"/><path class="cls-1" d="M39.75,4.24V15H29V5.59a1.35,1.35,0,0,1,1.34-1.35Z"/><path class="cls-2" d="M39.42,18H28.17a3.37,3.37,0,0,1-3.37-3.37V3.38A3.37,3.37,0,0,1,28.17,0H39.42A3.38,3.38,0,0,1,42.8,3.38V14.63A3.37,3.37,0,0,1,39.42,18ZM28.17,3a.38.38,0,0,0-.37.38V14.63a.38.38,0,0,0,.37.37H39.42a.38.38,0,0,0,.38-.37V3.38A.38.38,0,0,0,39.42,3Z"/><path class="cls-2" d="M14.63,18H3.38A3.37,3.37,0,0,1,0,14.63V3.38A3.38,3.38,0,0,1,3.38,0H14.63A3.37,3.37,0,0,1,18,3.38V14.63A3.37,3.37,0,0,1,14.63,18ZM3.38,3A.38.38,0,0,0,3,3.38V14.63a.38.38,0,0,0,.38.37H14.63a.38.38,0,0,0,.37-.37V3.38A.38.38,0,0,0,14.63,3Z"/></svg>