<svg id="Ebene_1" data-name="Ebene 1" xmlns="http://www.w3.org/2000/svg" viewBox="0 0 42.8 41.68"><defs><style>.cls-1{fill:#cf9775;}.cls-2{fill:#2d140d;}</style></defs><path class="cls-1" d="M15,27.93V38.7H4.21V29.27a1.34,1.34,0,0,1,1.35-1.34Z"/><path class="cls-1" d="M39.85,27.93V38.7H29.08V29.27a1.34,1.34,0,0,1,1.34-1.34Z"/><path class="cls-1" d="M27.43,4.25V15H16.66V5.59A1.34,1.34,0,0,1,18,4.25Z"/><path class="cls-2" d="M39.42,41.68H28.17a3.37,3.37,0,0,1-3.37-3.37V27.06a3.38,3.38,0,0,1,3.37-3.38H39.42a3.38,3.38,0,0,1,3.38,3.38V38.31A3.37,3.37,0,0,1,39.42,41.68Zm-11.25-15a.38.38,0,0,0-.37.38V38.31a.37.37,0,0,0,.37.37H39.42a.37.37,0,0,0,.38-.37V27.06a.38.38,0,0,0-.38-.38Z"/><path class="cls-2" d="M14.63,41.68H3.38A3.37,3.37,0,0,1,0,38.31V27.06a3.38,3.38,0,0,1,3.38-3.38H14.63A3.38,3.38,0,0,1,18,27.06V38.31A3.37,3.37,0,0,1,14.63,41.68Zm-11.25-15a.38.38,0,0,0-.38.38V38.31a.37.37,0,0,0,.38.37H14.63a.37.37,0,0,0,.37-.37V27.06a.38.38,0,0,0-.37-.38Z"/><path class="cls-2" d="M27,18H15.77a3.37,3.37,0,0,1-3.37-3.37V3.38A3.37,3.37,0,0,1,15.77,0H27A3.37,3.37,0,0,1,30.4,3.38V14.63A3.37,3.37,0,0,1,27,18ZM15.77,3a.38.38,0,0,0-.37.38V14.63a.38.38,0,0,0,.37.37H27a.38.38,0,0,0,.37-.37V3.38A.38.38,0,0,0,27,3Z"/></svg>