<svg id="Ebene_1" data-name="Ebene 1" xmlns="http://www.w3.org/2000/svg" viewBox="0 0 21.41 20.78"><defs><style>.cls-1{fill:none;}.cls-2{fill:#cf9775;}</style></defs><path class="cls-1" d="M16.26,13V5.25a.37.37,0,0,0-.38-.37h-8"/><path class="cls-2" d="M4.63,16.88a.37.37,0,0,1-.37-.38V6.94L1.44,4.21a3.29,3.29,0,0,0-.18,1V16.5a3.38,3.38,0,0,0,3.37,3.38H15.88a3.45,3.45,0,0,0,1.43-.33l-2.77-2.67Z"/><path class="cls-2" d="M15.88,4.88a.37.37,0,0,1,.38.37V13l3,2.9V5.25a3.38,3.38,0,0,0-3.38-3.37H4.78l3.1,3Z"/><line class="cls-2" x1="7.88" y1="4.88" x2="4.78" y2="1.88"/><path class="cls-2" d="M21.1,19.05,1.69.28A1,1,0,0,0,1,0H1A1,1,0,0,0,.27.31,1,1,0,0,0,.36,1.78L19.77,20.54a.84.84,0,0,0,.65.23,1.05,1.05,0,0,0,.71-.31A1,1,0,0,0,21.1,19.05Z"/></svg>