<svg id="Ebene_1" data-name="Ebene 1" xmlns="http://www.w3.org/2000/svg" viewBox="0 0 18 18"><defs><style>.cls-1{fill:#2d140d;}.cls-2{fill:#cf9775;}</style></defs><path class="cls-1" d="M14.63,18H3.38A3.37,3.37,0,0,1,0,14.63V3.38A3.38,3.38,0,0,1,3.38,0H14.63A3.37,3.37,0,0,1,18,3.38V14.63A3.37,3.37,0,0,1,14.63,18ZM3.38,3A.38.38,0,0,0,3,3.38V14.63a.38.38,0,0,0,.38.37H14.63a.38.38,0,0,0,.37-.37V3.38A.38.38,0,0,0,14.63,3Z"/><path class="cls-2" d="M15,4.23V15H4.23V5.58A1.34,1.34,0,0,1,5.58,4.23Z"/></svg>